<?xml version="1.0" encoding="utf-8"?>
<!-- Generator: Adobe Illustrator 22.0.1, SVG Export Plug-In . SVG Version: 6.00 Build 0)  -->
<svg version="1.1" id="svg11300" xmlns:svg="http://www.w3.org/2000/svg"
	 xmlns="http://www.w3.org/2000/svg" xmlns:xlink="http://www.w3.org/1999/xlink" x="0px" y="0px" viewBox="0 0 48 48"
	 style="enable-background:new 0 0 48 48;" xml:space="preserve">
<style type="text/css">
	.st0{fill:url(#path4323_1_);stroke:#2E3436;stroke-width:1;stroke-miterlimit:10;}
	.st1{fill:url(#path6480_1_);}
	.st2{opacity:0.1854;fill:none;stroke:url(#path8520_1_);stroke-width:1;stroke-miterlimit:10;enable-background:new    ;}
	.st3{fill:url(#path4357_1_);stroke:#888A85;stroke-width:0.7826;stroke-miterlimit:10;}
	.st4{fill:url(#path5198_1_);stroke:#000000;stroke-width:1;stroke-miterlimit:10;}
	.st5{fill:#2E3436;stroke:#000000;stroke-width:1.1739;stroke-miterlimit:10;}
	.st6{opacity:0.2809;fill:none;stroke:url(#path6450_1_);stroke-width:1;stroke-miterlimit:10;enable-background:new    ;}
	.st7{fill:#FFFFFF;}
	.st8{fill:url(#path6462_1_);stroke:#888A85;stroke-width:0.6667;stroke-miterlimit:10;}
	.st9{fill:#2E3436;stroke:#000000;stroke-width:1;stroke-miterlimit:10;}
	.st10{fill:url(#path6937_1_);stroke:#673907;stroke-width:2.4605;stroke-linecap:round;}
	.st11{fill:url(#path6935_1_);stroke:#888A85;stroke-width:2.4605;stroke-linecap:round;}
	.st12{fill:none;stroke:#FFFFFF;stroke-width:2.4605;stroke-linecap:round;stroke-linejoin:round;}
	.st13{fill:url(#path6933_1_);}
	.st14{opacity:0.5278;fill:#FFFFFF;enable-background:new    ;}
	.st15{opacity:0.4278;fill:url(#path1571_1_);enable-background:new    ;}
	.st16{fill:url(#path8532_1_);}
</style>
<g id="layer1">
	
		<radialGradient id="path4323_1_" cx="-79.5209" cy="79.1799" r="19.2292" gradientTransform="matrix(1.7728 0 0 -1.2967 157.5284 124.971)" gradientUnits="userSpaceOnUse">
		<stop  offset="0" style="stop-color:#857C63"/>
		<stop  offset="1" style="stop-color:#221F19"/>
	</radialGradient>
	<path id="path4323" class="st0" d="M10.4,12.5c0,0,2.9,5.9,9.6,5.8c14.1-0.4,16.6-7.7,16.9-8.8s0.9-0.9,1,0.1
		C42.5,51.3,6,33.4,4.7,26.3c7.2-2.1,5.5-6.2,5.5-6.2L10.4,12.5z"/>
	
		<linearGradient id="path6480_1_" gradientUnits="userSpaceOnUse" x1="32.5553" y1="20.8825" x2="21.4184" y2="18.6727" gradientTransform="matrix(1 0 0 -1 -3.8365 50.346)">
		<stop  offset="0" style="stop-color:#000000"/>
		<stop  offset="1" style="stop-color:#000000;stop-opacity:0"/>
	</linearGradient>
	<path id="path6480" class="st1" d="M15.7,30.1c6.7,1.3,10.2,0.1,12.2-1.5c-0.5-0.7-1.4-1.4-1.4-1.4s2.4,0.7,3.2,1.7
		c0.8,1.1,0.3,1.7,0.1,3.1c-0.5-1.2-1.4-1.6-1.5-2.1C26.4,32.4,21.9,32.3,15.7,30.1z"/>
	
		<linearGradient id="path8520_1_" gradientUnits="userSpaceOnUse" x1="18.8307" y1="34.2915" x2="43.3865" y2="6.4165" gradientTransform="matrix(1 0 0 -1 0 50)">
		<stop  offset="0" style="stop-color:#FFFFFF"/>
		<stop  offset="1" style="stop-color:#FFFFFF;stop-opacity:0"/>
	</linearGradient>
	<path id="path8520" class="st2" d="M37,11.8c-0.6,0.9-1.4,2-2.7,3.1c-2.6,2.2-7.1,4.2-14.3,4.3c-4.2,0.1-7-1.9-8.6-3.8L11.2,20
		c0.1,0.4,0.4,1.4-0.1,2.7c-0.5,1.4-2.2,2.9-5,4c0.3,0.5,0.5,1,1.2,1.8c1,1,2.5,2.1,4.2,3.1c3.4,1.9,7.8,3.5,11.9,3.6
		s7.9-1.2,10.4-5C36.3,26.7,37.7,20.8,37,11.8z"/>
	
		<radialGradient id="path4357_1_" cx="-21.9746" cy="121.85" r="3.5153" gradientTransform="matrix(1.6847 0 0 -1.6847 50.6661 223.8188)" gradientUnits="userSpaceOnUse">
		<stop  offset="0" style="stop-color:#FFFFFF"/>
		<stop  offset="1" style="stop-color:#B9B9B0"/>
	</radialGradient>
	<path id="path4357" class="st3" d="M17.7,21.4c0,2.2-1.8,4.1-4.1,4.1s-4.1-1.8-4.1-4.1s1.8-4.1,4.1-4.1S17.7,19.1,17.7,21.4z"/>
	
		<radialGradient id="path5198_1_" cx="-129.5447" cy="-36.2294" r="4.831" gradientTransform="matrix(0.7975 -0.4604 -0.5374 -0.9308 88.3169 -70.0353)" gradientUnits="userSpaceOnUse">
		<stop  offset="0" style="stop-color:#5B676B"/>
		<stop  offset="1" style="stop-color:#141718"/>
	</radialGradient>
	<path id="path5198" class="st4" d="M9.6,22.9c2,2.7,2,6.1,0.1,7.5c-1.9,1.4-5.1,0.3-7.1-2.4c0,0,0,0,0,0c-2-2.7-2-6.1-0.1-7.5
		C4.5,19.1,7.6,20.2,9.6,22.9C9.6,22.9,9.6,22.9,9.6,22.9z"/>
	<path id="path4359" class="st5" d="M16.6,22c0,1.1-0.9,2-2,2s-2-0.9-2-2s0.9-2,2-2S16.6,20.9,16.6,22z"/>
	
		<linearGradient id="path6450_1_" gradientUnits="userSpaceOnUse" x1="-173.5356" y1="-63.3314" x2="-173.8562" y2="-71.539" gradientTransform="matrix(0.8004 -0.5995 -0.5995 -0.8004 104.6704 -132.4484)">
		<stop  offset="0" style="stop-color:#FFFFFF"/>
		<stop  offset="1" style="stop-color:#FFFFFF;stop-opacity:0"/>
	</linearGradient>
	<path id="path6450" class="st6" d="M2.9,21.4c-0.6,0.5-1,1.3-0.9,2.4c0,1.1,0.5,2.4,1.4,3.6s2.1,2,3.1,2.3S8.3,30,9,29.5
		s1-1.3,1-2.4c0-1.1-0.4-2.4-1.3-3.6s-2-2-3.1-2.3S3.5,20.9,2.9,21.4z"/>
	<path id="path6446" class="st7" d="M5.8,23.3c0,1.2-0.8,2.1-1.8,2.1s-1.8-0.9-1.8-2.1c0,0,0,0,0,0c0-1.2,0.8-2.1,1.8-2.1
		S5.8,22.1,5.8,23.3C5.8,23.3,5.8,23.3,5.8,23.3z"/>
	<path id="path4361" class="st7" d="M15.2,21.1c0,0.7-0.6,1.4-1.4,1.4c-0.7,0-1.4-0.6-1.4-1.4c0,0,0,0,0,0c0-0.7,0.6-1.4,1.4-1.4
		C14.6,19.7,15.2,20.3,15.2,21.1C15.2,21.1,15.2,21.1,15.2,21.1z"/>
	
		<radialGradient id="path6462_1_" cx="-41.7601" cy="141.6354" r="3.5153" gradientTransform="matrix(1.9777 0 0 -1.9777 104.6319 298.5952)" gradientUnits="userSpaceOnUse">
		<stop  offset="0" style="stop-color:#FFFFFF"/>
		<stop  offset="1" style="stop-color:#B9B9B0"/>
	</radialGradient>
	<path id="path6462" class="st8" d="M26.8,21.8c0,2.6-2.1,4.8-4.8,4.8s-4.8-2.1-4.8-4.8s2.1-4.8,4.8-4.8S26.8,19.2,26.8,21.8z"/>
	<path id="path6464" class="st9" d="M25.5,22.5c0,1.3-1,2.3-2.3,2.3c-1.3,0-2.3-1-2.3-2.3s1-2.3,2.3-2.3
		C24.4,20.2,25.5,21.3,25.5,22.5z"/>
	<path id="path6466" class="st7" d="M23.9,21.5c0,0.9-0.7,1.6-1.6,1.6s-1.6-0.7-1.6-1.6c0,0,0,0,0,0c0-0.9,0.7-1.6,1.6-1.6
		S23.9,20.6,23.9,21.5C23.9,21.5,23.9,21.5,23.9,21.5z"/>
	<g id="g8463" transform="matrix(-0.114852,-0.389864,0.389864,-0.114852,24.71507,29.68942)">
		
			<linearGradient id="path6937_1_" gradientUnits="userSpaceOnUse" x1="965.2654" y1="-2016.1838" x2="956.0016" y2="-2024.2412" gradientTransform="matrix(-0.1149 0.3899 0.3899 0.1149 887.8887 -127.4082)">
			<stop  offset="0" style="stop-color:#6E3D09"/>
			<stop  offset="0.2424" style="stop-color:#EA8113"/>
			<stop  offset="0.6212" style="stop-color:#5C3307"/>
			<stop  offset="1" style="stop-color:#E07C12"/>
		</linearGradient>
		<path id="path6937" class="st10" d="M-23.4,23.6l3.7,3.5C-11.3,20.7-2.6,6.9-2.6,6.9c2-2.2-0.1-3.8-2.2-2.4
			C-4.7,4.5-17.7,14.7-23.4,23.6z"/>
		
			<linearGradient id="path6935_1_" gradientUnits="userSpaceOnUse" x1="1011.8005" y1="-2054.2754" x2="1015.5151" y2="-2050.8379" gradientTransform="matrix(-0.1149 0.3899 0.3899 0.1149 890.7867 -131.0888)">
			<stop  offset="0" style="stop-color:#BDBDBD"/>
			<stop  offset="0.3333" style="stop-color:#E2E2E2"/>
			<stop  offset="0.6667" style="stop-color:#A3A3A3"/>
			<stop  offset="1" style="stop-color:#DDDDDD"/>
		</linearGradient>
		<path id="path6935" class="st11" d="M-30.4,32.8l2.2,1.9l8.5-7.4l0.3-0.7l1.1,0c-0.4-1.6-2.9-4.4-4.8-4.4l0.1,1.1l-0.7,0.4
			L-30.4,32.8z"/>
		<path id="path6985" class="st12" d="M-23.8,28.4l-4.4,5.3"/>
		
			<radialGradient id="path6933_1_" cx="548.1722" cy="-1560.7383" r="7.5792" gradientTransform="matrix(-0.1806 0.5975 0.6131 0.176 1024.8372 -19.9822)" gradientUnits="userSpaceOnUse">
			<stop  offset="0" style="stop-color:#696969"/>
			<stop  offset="1" style="stop-color:#000000"/>
		</radialGradient>
		<path id="path6933" class="st13" d="M-45.3,42.8c10.4,0,18.4,1.2,19.9-6.4c1.2-6.1-7.2-9.1-11.4-3.6
			C-40.9,38.1-45.3,42.8-45.3,42.8z"/>
		<path id="path6971" class="st14" d="M-26.4,36.6c0,1.4-1.2,2.6-2.6,2.6s-2.6-1.2-2.6-2.6c0-1.4,1.2-2.6,2.6-2.6
			S-26.4,35.2-26.4,36.6z"/>
		<path id="path6983" class="st7" d="M-19.7,26.8c0,1-0.8,1.7-1.7,1.7s-1.7-0.8-1.7-1.7s0.8-1.7,1.7-1.7S-19.7,25.9-19.7,26.8z"/>
		
			<linearGradient id="path1571_1_" gradientUnits="userSpaceOnUse" x1="1830.7256" y1="-1378.6975" x2="1825.2416" y2="-1374.1676" gradientTransform="matrix(-0.2408 0.249 0.249 0.2408 753.2095 -84.1408)">
			<stop  offset="0" style="stop-color:#FFFFFF"/>
			<stop  offset="1" style="stop-color:#FFFFFF;stop-opacity:0"/>
		</linearGradient>
		<path id="path1571" class="st15" d="M-38.5,40.9c0,0,3.7,0.1,6.1-1.4c0.8-0.5,1.5,0.6,0.5,1.1C-34.1,41.5-38.5,40.9-38.5,40.9z"/>
	</g>
	
		<linearGradient id="path8532_1_" gradientUnits="userSpaceOnUse" x1="26.0898" y1="19.7603" x2="24.2557" y2="19.3184" gradientTransform="matrix(1 0 0 -1 0 50)">
		<stop  offset="0" style="stop-color:#000000"/>
		<stop  offset="1" style="stop-color:#000000;stop-opacity:0"/>
	</linearGradient>
	<path id="path8532" class="st16" d="M23,31.7c1.5,0.1,2.8-0.3,3.4-0.5c0.1-0.6,0.5-1.6,2-1.7l-0.5-0.9c0,0-2,1.3-4.1,1.7L23,31.7z"
		/>
</g>
</svg>
